<?xml version="1.0" encoding="utf-8"?>
<!-- Generator: Adobe Illustrator 16.0.4, SVG Export Plug-In . SVG Version: 6.00 Build 0)  -->
<svg version="1.2" baseProfile="tiny" id="Layer_1" xmlns="http://www.w3.org/2000/svg" xmlns:xlink="http://www.w3.org/1999/xlink"
	 x="0px" y="0px" width="265.271px" height="600px" viewBox="0 0 265.271 600" xml:space="preserve">
<g>
	<g>
		<path fill="#FF6A13" d="M194.627,579.428c0.199-1.675,1.562-3.966,4.705-6.568c4-3.314,14.107-11.108,16.369-13.936
			c4.166-5.217,1.967-24.206,1.967-24.206l22.848-3.827c3.375,3.038,6.437,10.654,9.18,17.128
			c-3.332,5.14-8.059,12.218-12.46,18.078C225.137,582.189,194.885,579.453,194.627,579.428z"/>
		<path fill="#FF6A13" d="M225.736,582.15c-6.73,0.358-24.299-0.328-28.117,0.026c-2.004,0.186-3.211-0.902-2.992-2.749
			c0.258,0.025,30.51,2.762,42.608-13.331c4.401-5.86,9.128-12.938,12.46-18.078c0.879,2.076,1.73,4.04,2.543,5.688
			C255.417,560.146,232.467,581.797,225.736,582.15z"/>
	</g>
	<path fill="#3D3D3D" d="M237.143,297.085c0,0,6.743,28.871,6.551,54.402c-0.189,25.53-2.184,59.581-1.838,69.938
		c0.343,10.357,4.381,51.402,7.578,65.437s5.983,44.348,5.983,44.348s-21.157,8.756-33.036,9.317
		c-10.662,0.5-22.236-1.817-22.236-1.817s-8.426-102.055-12.525-114.272c-4.1-12.213-20.598-128.039-20.598-128.039L237.143,297.085
		z"/>
	<path fill="#F8B582" d="M118.768,39.432c-3.865-8.618-4.531-8.601-6.42-15.549c-1.895-6.944-5.805-0.099-3.85,5.524
		s0.889,12.468-0.535,11.98c-1.42-0.488-16.986-3.366-16.986-3.366l-2.568,27.326l36.049,4.401l9.631-11.755
		C134.088,57.993,122.803,48.425,118.768,39.432z"/>
	<rect x="175.043" y="298.664" fill="#F9B340" width="54.551" height="71.535"/>
	<path fill="#F8B582" d="M134.088,57.993c0,0,19.125,14.868,28.248,25.626c9.121,10.758,13.264,17.767,13.264,17.767l-9.203,7.79
		L123.359,67.47L134.088,57.993z"/>
	<path fill="#FF6A13" d="M211.555,137.257L175.6,101.386l-19.279,16.758c0,0,25.406,46.017,41.545,39.733
		C214,151.589,211.555,137.257,211.555,137.257z"/>
	<path fill="#FF6A13" d="M182.119,102.365c0,0-5.83,8.843-10.602,14.565s-19.021,14.134-19.021,14.134s-1.885-6.763-5.455-9.546
		c-3.566-2.784-5.379-5.123-5.379-5.123s14.189-15.19,18.352-19.001c4.16-3.812,7.723-9.205,7.723-9.205
		S179.875,96.048,182.119,102.365z"/>
	<rect x="87.312" fill="#E83D4F" width="7.514" height="48.412"/>
	<path fill="#E83D4F" d="M0,137.18c3.564-47.195,42.961-84.387,91.066-84.387c48.109,0,87.504,37.192,91.07,84.387H0z"/>
	<rect x="70.883" y="45.348" fill="#E21D38" width="40.367" height="10.046"/>
	<g>
		<g>
			<g>
				<g>
					<g>
						<path fill="#F8B582" d="M214.764,84.486c3.627-3.133,5.926-4.272,11.906-4.294c5.982-0.026,23.719,8.062,26.91,19.843
							c3.191,11.777-8.108,21.716-12.193,24.97c-4.635,3.686-11.184,7.704-16.512,13.547c-2.412,2.646-4.162,11.065-4.418,13.356
							c-0.002,0.009,0,0.018,0,0.026c-5.748,1.622-12.561-0.858-17.504-3.6c-2.799-1.549-4.896-3.331-6.674-5.308
							c0.562-0.182,1.107-0.41,1.598-0.764c1.723-1.243,6.248-8.434,5.92-11.049c-0.467-3.711-2.992-5.217-6.408-6.672
							c-4.521-1.924-0.105-6.43-2.025-8.984c-1.254-1.666,0.381-1.778,1.369-2.331c0.115-0.751-0.924-1.907-0.844-2.58
							c0.197-1.648,1.914-1.14,2.148-1.899c0.586-1.907-3.832-5.049-2.26-6.46c2.723-2.435,11.775-4.601,12.375-7.009
							C209.361,90.416,211.32,87.469,214.764,84.486z"/>
						<path fill="#3D3D3D" d="M215.859,83.575c0,0,6.717,1.61,10.154,12.045c2.199,6.672-0.471,10.893,4.5,16.831
							c4.281,5.114,0.732,8.226,0.732,8.226l-4.281,15.972c0,0,12.668-1.277,23.727-15.868c10.641-14.043,7.477-18.794,7.477-18.794
							s-3.633-11.437-20.057-20.982c-9.246-5.373-16.352-6.055-16.352-6.055S219.742,80.02,215.859,83.575z"/>
						<path fill="#F8B582" d="M228.906,112.02c0,0,3.457-4.656,7.592-0.984c4.134,3.678,0.252,10.439-7.291,10.824
							C221.664,122.243,228.906,112.02,228.906,112.02z"/>
					</g>
				</g>
			</g>
		</g>
		<path fill="#FF6A13" d="M225.65,143.243l0.457,10.841c0,0-19.322-2.568-26.42-7.902s-9.695-7.056-9.695-7.056
			s10.1-1.675,16.42-0.259C212.732,140.287,225.65,143.243,225.65,143.243z"/>
	</g>
	<g>
		<path fill="#FF6A13" d="M202.721,76.821l11.324,2.067c0,0,21.59-23.17,43.286-0.194c19.934,21.112-3.946,42.746-3.946,42.746
			l-4.254-3.297c4.541-6.021,14.783-21.988,5.041-32.829c-12.209-13.585-25.021-8.622-25.021-8.622s9.205,1.243,16.828,10.996
			c6.518,8.338-0.531,19.338-4.594,24.456l-41.006-31.754L202.721,76.821z"/>
		<path fill="#FF6A13" d="M245.979,87.688c-7.623-9.753-16.828-10.996-16.828-10.996s12.812-4.963,25.021,8.622
			c9.742,10.841-0.5,26.809-5.041,32.829l-7.746-5.999C245.447,107.026,252.496,96.026,245.979,87.688z"/>
	</g>
	<g>
		<path fill="#FF6A13" d="M183.684,208.801c1.467-12.222,8.312-23.96,13.691-27.87c5.379-3.914,5.867-9.779-2.467-11.738
			c-8.334-1.955-26.383-11.734-34.697-20.538c-5.52-5.843-22.426-24.292-33.191-36.057l15.936-19.602
			c0,0,49.027,33.23,63.457,45.871c5.654,4.954,19.695,15.217,19.695,15.217s10.662,13.201,12.073,41.132
			c1.411,27.93-3.665,58.463-5.038,67.97c-1.375,9.512,4,33.899,4,33.899s-35.461,7.686-47.15,4.69
			c-0.424-0.107-0.85-0.215-1.275-0.323C186.578,273.293,182.596,217.859,183.684,208.801z"/>
		<path fill="#FF6A13" d="M171.6,189.929c1.312-4.264,2.902-9.015,4.584-13.84c-7.688-7.703-15.271-15.234-18.418-18.143
			c-12.713-11.756-34.406-40.848-34.406-40.848l3.66-4.501c10.765,11.765,27.672,30.214,33.191,36.057
			c8.314,8.804,26.363,18.583,34.697,20.538c8.334,1.959,7.846,7.824,2.467,11.738c-5.379,3.91-12.225,15.648-13.691,27.87
			c-1.088,9.059,2.895,64.492,5.033,92.651c-11.217-2.844-21.695-5.054-21.695-5.054S163.775,215.356,171.6,189.929z"/>
	</g>
	<g>
		<path fill="#F8B582" d="M115.498,67.47c12.842,12.227,27.457,25.526,27.457,25.526l-19.596,24.103
			c0,0-14.482-21.042-24.623-35.482C105.209,77.499,111.129,72.022,115.498,67.47z"/>
		<path fill="#F8B582" d="M70.07,43.195c-2.605-11.734,6.629-25.73,11.506-24.426c4.877,1.303,10.902,23.123,15.227,29.644
			c1.77,2.667,9.809,10.604,18.695,19.058c-4.369,4.553-10.289,10.029-16.762,14.146c-4.723-6.724-8.508-12.019-9.443-13.085
			C86.346,65.183,72.678,54.933,70.07,43.195z"/>
	</g>
	<path fill="#FF6A13" d="M157.961,99.163c0,0-6.064,10.573-10.463,16.585c-4.402,6.012-18.096,15.303-18.096,15.303
		s-2.304-6.628-6.042-9.179c-3.736-2.555-5.691-4.773-5.691-4.773s13.202-16.058,17.116-20.123c3.912-4.065,7.125-9.676,7.125-9.676
		S155.322,92.996,157.961,99.163z"/>
	<path fill="#FF6A13" d="M151.41,101.386c0,0-5.545,10.958-9.455,14.362c-3.912,3.405-8.962,7.315-8.962,7.315
		s3.98-6.698,7.169-10.837C144.809,106.193,151.41,101.386,151.41,101.386z"/>
	<path fill="#FF6A13" d="M142.955,102.365c0,0-6.542,8.8-10.619,11.411c-4.074,2.606-9.512,2.546-9.512,2.546
		s6.742-4.082,10.168-7.146C136.413,106.111,142.955,102.365,142.955,102.365z"/>
	<polygon fill="#FF6A13" points="178.834,241.564 201.311,263.57 196.492,270.906 173.928,247.434 	"/>
	<g>
		<path fill="#E83D4F" d="M194.957,323.63c0,0-0.256-8.67,1.812-17.431c2.307-9.766,5.076-16.615,7.676-15.493
			s-1.412,9.633-2.809,17.099c-1.205,6.431-2.408,17.236-2.408,17.236L194.957,323.63z"/>
		<path fill="#E83D4F" d="M207.842,327.89c0,0,5.373-6.811,8.932-15.083c3.969-9.214,5.826-16.365,3.068-17.012
			c-2.758-0.647-4.607,8.579-7.932,15.406c-2.867,5.878-8.338,15.277-8.338,15.277L207.842,327.89z"/>
	</g>
	<rect x="182.279" y="320.294" fill="#E2911A" width="40.078" height="43.519"/>
	<rect x="98.105" y="551.354" fill="#7C7C7D" width="96.498" height="10.436"/>
	<rect x="200.145" y="582.259" fill="#7C7C7D" width="59.322" height="10.431"/>
	<polygon fill="#ADADAD" points="81.525,600 131.007,430.519 148.037,435.49 100.004,600 	"/>
	<polygon fill="#ADADAD" points="198.672,600 81.525,311.529 96.25,305.854 215.701,600 	"/>
	<path fill="#FFFFFF" d="M137.836,438.145c0,2.352,1.908,4.255,4.259,4.255s4.26-1.903,4.26-4.255c0-2.356-1.908-4.265-4.26-4.265
		S137.836,435.788,137.836,438.145z"/>
	<circle fill="#FFFFFF" cx="190.344" cy="556.572" r="4.26"/>
	<circle fill="#FFFFFF" cx="202.318" cy="587.472" r="4.26"/>
</g>
</svg>
