<?xml version="1.0" encoding="UTF-8"?>
<!DOCTYPE svg PUBLIC "-//W3C//DTD SVG 1.1//EN" "http://www.w3.org/Graphics/SVG/1.1/DTD/svg11.dtd">
<!-- Creator: CorelDRAW X7 -->
<svg xmlns="http://www.w3.org/2000/svg" xml:space="preserve" width="2700px" height="1800px" version="1.1" style="shape-rendering:geometricPrecision; text-rendering:geometricPrecision; image-rendering:optimizeQuality; fill-rule:evenodd; clip-rule:evenodd"
viewBox="0 0 2718 1812"
 xmlns:xlink="http://www.w3.org/1999/xlink">
 <defs>
  <style type="text/css">
   <![CDATA[
    .fil7 {fill:none}
    .fil0 {fill:black}
    .fil6 {fill:#477CC0}
    .fil4 {fill:#C68D59}
    .fil2 {fill:#EDB277}
    .fil3 {fill:#F9CEA7}
    .fil1 {fill:#FDDCBD}
    .fil5 {fill:#FE4444}
   ]]>
  </style>
 </defs>
 <g id="Layer_x0020_1">
  <metadata id="CorelCorpID_0Corel-Layer"/>
  <g id="_3052981028896">
   <path class="fil0" d="M804 1349c-13,0 -33,0 -45,3 -11,2 -21,7 -30,14 -9,8 15,22 63,69 48,48 109,115 109,115 0,0 10,3 33,9 14,3 27,8 40,14l-29 24c0,0 11,16 34,44 23,28 47,60 47,60l58 -42c0,0 2,5 19,23 16,17 49,44 49,44 0,0 27,-32 126,-152 99,-120 220,-149 220,-149 50,35 302,146 519,130 217,-17 365,-162 365,-162l-17 -18c3,0 6,1 9,1 1,0 2,0 2,0 1,0 25,12 106,31 19,5 38,7 57,7 30,0 59,-5 87,-16l-211 -167c-22,-8 -82,-8 -82,-8 11,-20 36,-32 36,-32l-95 -75c-10,6 -19,12 -28,20 -11,10 -21,21 -30,33l-45 -47 -29 40c0,0 -67,-134 -254,-256 -186,-121 -359,-169 -359,-169 -12,-38 -35,-86 -35,-86l-14 4c4,-13 7,-27 9,-41 2,-17 3,-36 2,-54 0,-3 0,-5 0,-8l14 1 -15 -61c-8,-32 -24,-68 -39,-97 -36,-71 -85,-136 -145,-189 -50,-45 -108,-80 -173,-98 -24,-6 -57,-12 -82,-11 -35,0 -70,7 -103,23 -26,15 -47,37 -64,64 -26,43 -42,106 -47,157 -3,1 -7,1 -10,2 -38,8 -78,19 -115,30 -28,7 -55,15 -82,23 -13,4 -32,8 -45,14 -22,9 -40,31 -38,56 2,38 37,51 69,52 31,1 62,1 93,2 36,0 72,1 108,2 -31,17 -66,26 -97,45 -31,18 -50,52 -40,88 7,26 28,45 53,52 24,7 66,6 91,6 3,0 5,0 7,0l40 70 17 6c8,2 17,4 26,5 2,9 7,15 13,20l-92 4 -5 -50 -347 -121 -464 -4 18 499 269 181 547 15 -7 -241 165 0c0,0 24,66 33,70 8,4 166,-22 209,-32l15 27c0,0 -49,26 -138,107 -89,80 -158,155 -158,155 -25,-18 -50,-33 -78,-46 -29,-13 -59,-22 -90,-29zm1159 -99c0,0 29,-41 36,-68 15,1 31,2 47,2 26,0 53,-2 79,-4 -20,26 -46,47 -76,61 -49,21 -86,9 -86,9z"/>
   <path class="fil1" d="M987 962l38 72 -203 7c-6,21 -20,39 -39,48 -33,16 -53,9 -53,9 0,0 -14,45 -25,61 -10,13 -21,17 -38,12 -17,-6 -10,-28 -1,-46 8,-17 16,-36 22,-55 5,-19 -66,22 -99,26 -34,5 -36,-2 -38,-14 -1,-13 3,-19 26,-28 24,-9 64,-26 73,-30 9,-3 8,-10 -1,-13 -9,-4 -61,-22 -77,-31 -16,-9 -20,-22 -15,-30 6,-8 11,-14 38,-5 28,10 59,26 66,28 7,2 10,-10 23,-20 11,-8 20,-12 20,-18 -1,-7 -20,-71 -3,-84 16,-12 32,-13 40,23 7,35 10,62 20,72 13,12 29,19 46,20 20,2 180,-4 180,-4z"/>
   <path class="fil2" d="M782 915l-5 -114 -469 -7 19 481 478 15 -6 -159c-8,3 -16,6 -25,7 -3,0 -5,0 -7,0 -5,0 -11,0 -16,0 -5,-1 -9,52 -54,70 -45,18 -66,-11 -75,-23 -11,-17 2,-54 2,-54 0,0 -65,12 -88,1 -24,-11 -36,-45 -23,-79 10,-27 68,-34 68,-34 0,0 -71,-12 -71,-55 0,-43 23,-62 65,-56 28,4 55,14 80,29 24,14 10,-9 16,-15 0,0 -21,-63 -4,-88 17,-26 80,-38 92,7 6,25 14,50 23,74l0 0z"/>
   <path class="fil3" d="M694 758l-405 -4 -160 -66 347 3c0,0 171,54 218,67z"/>
   <polygon class="fil4" points="267,787 287,1247 86,1108 71,697 "/>
   <polygon class="fil1" points="866,865 896,927 811,927 808,867 "/>
   <path class="fil5" d="M1139 875c0,0 -47,-19 -66,-25 -18,-7 -41,-16 -41,-16 0,0 -50,-2 -80,1 -31,2 -62,6 -62,6 0,0 18,34 28,57 5,10 9,21 13,33l44 -1 -14 -31c0,0 67,-12 115,-18 48,-5 63,-6 63,-6z"/>
   <path class="fil5" d="M1442 681c0,0 13,29 19,46 4,9 7,20 8,30 2,11 -68,15 -117,42 -31,17 -59,37 -85,59 -25,23 -20,3 -35,4 -9,0 -18,1 -27,3 -9,2 35,-72 94,-119 79,-62 143,-65 143,-65z"/>
   <path class="fil5" d="M1492 782c0,0 159,51 304,133 159,90 241,205 241,205 0,0 -185,-5 -302,-3 -117,2 -227,7 -288,17 -35,6 -70,15 -103,28 -34,12 -39,-64 -37,-63 2,0 89,-19 135,-44 46,-25 33,-43 26,-51 -8,-7 -19,-6 -38,8 -18,14 -63,36 -170,55 -117,20 -170,19 -170,19 -13,-32 -29,-63 -46,-94 -26,-44 -38,-70 -38,-70 74,-14 148,-22 223,-25 126,-6 136,4 153,9 17,5 26,-23 6,-34 -14,-9 -30,-14 -47,-15 -2,0 -5,0 -7,0 -5,0 -11,0 -16,1 -5,1 38,-38 174,-76z"/>
   <path class="fil6" d="M1922 1152c0,0 4,96 -97,149 -101,53 -169,41 -182,40 -14,-2 -18,7 -15,20 2,14 7,24 52,23 46,-1 98,-12 147,-44 50,-32 52,-35 52,-35 0,0 68,26 173,-7 105,-34 127,-86 127,-86l131 160c0,0 -97,112 -316,123 -220,12 -371,-70 -409,-91 -38,-22 -52,-39 -52,-39 0,0 -11,-25 -55,-8 -44,17 -159,76 -240,169 -81,92 -85,101 -85,101 0,0 -51,-65 -83,-110 -32,-46 -45,-67 -45,-67 0,0 129,-139 230,-207 101,-69 263,-108 354,-81 90,27 110,42 126,42 15,1 19,-21 12,-29 -10,-13 -43,-23 -43,-23 0,0 186,3 218,0z"/>
   <path class="fil5" d="M1010 147c0,0 61,29 85,119 24,91 40,208 40,208 -40,-38 -86,-67 -137,-86 -82,-30 -117,-31 -117,-31 0,0 7,-93 41,-149 34,-55 76,-60 88,-61z"/>
   <path class="fil5" d="M1106 486c0,0 -65,-57 -138,-80 -72,-22 -86,-28 -132,-19 -46,9 -225,61 -233,65 -9,3 -25,19 15,21 39,1 387,4 488,13z"/>
   <path class="fil5" d="M1169 488c0,0 -17,-143 -39,-209 -22,-67 -51,-118 -76,-136 0,0 105,-8 222,96 134,120 170,264 170,264 0,0 -190,-15 -277,-15z"/>
   <path class="fil2" d="M1443 540c3,1 8,68 -8,106 0,0 -40,6 -48,17 0,0 -7,-109 -93,-141 0,0 125,13 149,18z"/>
   <path class="fil2" d="M1211 516c0,0 -34,19 -45,39 -12,21 -9,50 -9,50 -18,-14 -32,-31 -43,-51 -15,-30 -15,-42 -15,-42 0,0 74,4 112,4z"/>
   <path class="fil1" d="M746 664c26,7 138,2 159,2 21,0 28,-16 23,-24 -4,-9 -21,-14 -10,-30 12,-15 25,-5 32,1 8,6 23,23 13,61 -11,38 -85,32 -85,32l23 39c9,3 19,5 28,5 14,0 27,-3 39,-9 33,-15 40,-34 48,-52 9,-19 -6,-22 -13,-25 -7,-4 -9,-13 -4,-22 5,-10 22,-8 42,-2 20,7 39,26 39,43 0,25 -27,12 -27,12 0,0 1,7 -24,45 -14,21 -37,36 -63,38 -25,2 11,4 71,23 46,16 91,33 134,53 62,-121 160,-167 160,-167 6,-13 10,-27 10,-42 0,-52 -42,-94 -94,-94 -1,0 -2,0 -2,0 -65,2 -49,90 -49,90 -22,2 -35,0 -77,-31 -42,-32 -54,-99 -54,-99l-179 -2 -3 25c0,0 -2,3 -37,23 -35,21 -70,29 -102,49 -33,19 -25,50 2,58zm496 -71c21,-18 48,26 54,44 5,18 -6,23 -12,23 -7,1 -15,-10 -19,-13 -4,-4 -8,-2 -11,2 0,0 24,13 23,40 0,26 -10,31 -20,32 -11,2 -13,-11 -13,-26 0,-16 -7,-22 -13,-24 -3,-2 -6,-3 -10,-3 -4,0 -1,-56 21,-75l0 0zm-277 -79c2,0 4,0 6,0 18,0 32,14 32,32 0,18 -14,33 -32,33 -17,0 -30,-12 -33,-28 0,-2 0,-3 0,-5 0,-16 11,-29 27,-32l0 0z"/>
   <path class="fil0" d="M1422 1534c-14,13 -27,27 -40,42l320 -22 -280 -20z"/>
   <path class="fil0" d="M1299 1678c0,0 -18,20 -39,49l331 -23 -292 -26z"/>
   <path class="fil0" d="M2358 1489c0,0 -53,29 -98,43l369 -18 -271 -25z"/>
   <path class="fil0" d="M2421 1149c-20,-14 -39,-30 -57,-46l335 22 -278 24z"/>
   <path class="fil0" d="M1831 778c-37,-17 -76,-31 -115,-41l348 17 -233 24z"/>
   <path class="fil0" d="M1598 499c6,16 10,33 13,50l316 -23 -329 -27z"/>
   <path class="fil0" d="M1531 336c10,14 20,29 28,45l304 -20 -332 -25z"/>
   <path class="fil0" d="M1366 138c-32,-19 -68,-35 -104,-45l387 22 -283 23z"/>
  </g>
  <rect class="fil7" width="2718" height="1812"/>
 </g>
</svg>
